<svg width="389" height="412" viewBox="0 0 389 412" fill="none" xmlns="http://www.w3.org/2000/svg">
<path d="M0 0V412H127.02C155.373 406.341 212.079 381.44 212.079 304.473C212.079 247.879 159.154 208.641 132.691 206C159.154 200.718 212.079 172.27 212.079 100.736C212.079 36.2198 155.373 3.77289 127.02 0H0Z" fill="#2D3282"/>
<path d="M154.239 412H222.286C250.638 407.473 307.344 379.629 307.344 304.473C307.344 246.747 255.175 207.509 229.09 206C255.175 198.454 307.344 166.837 307.344 100.736C307.344 34.6352 250.638 6.03663 222.286 0H154.239C181.836 4.90476 237.029 31.9187 237.029 100.736C237.029 169.554 186.372 199.586 161.044 206C186.372 212.037 237.029 244.484 237.029 304.473C237.029 382.645 181.836 402.945 154.239 412Z" fill="#2D31A6"/>
<path d="M254.041 412H299.405C329.27 405.209 389 382.571 389 304.473C389 245.615 334.563 209.773 307.344 206C334.563 198.454 389 166.837 389 100.736C389 41.8791 334.563 6.03663 307.344 0H254.041C282.016 6.03663 337.965 44.1429 337.965 100.736C337.965 166.837 285.04 198.454 258.577 206C285.04 213.546 337.965 246.747 337.965 304.473C337.965 381.44 282.016 401.436 254.041 412Z" fill="#3538CD"/>
</svg>
