<svg width="204" height="92" viewBox="0 0 204 92" fill="none" xmlns="http://www.w3.org/2000/svg">
<path d="M6.05713 7.10959C6.05713 3.18307 9.29605 0 13.2915 0H25.7047C29.7001 0 32.9391 3.18307 32.9391 7.10959C32.9391 9.59589 31.6404 11.7842 29.6733 13.0549C31.6404 14.3256 32.9391 16.5138 32.9391 19.0001C32.9391 22.9267 29.7001 26.1098 25.7047 26.1098H25.5476C23.6746 26.1098 21.9677 25.4102 20.6829 24.2624V30.8132C20.6829 34.792 17.3593 38 13.3305 38C9.34501 38 6.05713 34.8266 6.05713 30.8904C6.05713 28.4042 7.35567 26.2161 9.32259 24.9453C7.35567 23.6745 6.05713 21.4863 6.05713 19.0001C6.05713 16.5138 7.35579 14.3256 9.32284 13.0549C7.35579 11.7842 6.05713 9.59589 6.05713 7.10959ZM18.3133 14.2193H13.2915C10.6048 14.2193 8.42681 16.3598 8.42681 19.0001C8.42681 21.6303 10.588 23.7644 13.2604 23.7809C13.2707 23.7808 13.2811 23.7808 13.2915 23.7808H18.3133V14.2193ZM20.6829 19.0001C20.6829 21.6405 22.8609 23.7809 25.5476 23.7809H25.7047C28.3914 23.7809 30.5694 21.6405 30.5694 19.0001C30.5694 16.3598 28.3914 14.2193 25.7047 14.2193H25.5476C22.8609 14.2193 20.6829 16.3598 20.6829 19.0001ZM13.2915 26.1098C13.2811 26.1098 13.2707 26.1097 13.2604 26.1097C10.588 26.1261 8.42681 28.2602 8.42681 30.8904C8.42681 33.521 10.6339 35.6712 13.3305 35.6712C16.0705 35.6712 18.3133 33.4865 18.3133 30.8132V26.1098H13.2915ZM13.2915 2.32882C10.6048 2.32882 8.42681 4.46925 8.42681 7.10959C8.42681 9.74997 10.6048 11.8904 13.2915 11.8904H18.3133V2.32882H13.2915ZM20.6829 11.8904H25.7047C28.3914 11.8904 30.5694 9.74997 30.5694 7.10959C30.5694 4.46925 28.3914 2.32882 25.7047 2.32882H20.6829V11.8904Z" fill="#0D0F1C"/>
<g clip-path="url(#clip0_189_417)">
<path d="M61.9003 0.00390625H87.066C90.8815 0.00390625 93.9664 3.0888 93.9664 6.90423V31.0958C93.9664 34.9112 90.8815 37.9961 87.066 37.9961H61.9003C58.0849 37.9961 55 34.9112 55 31.0958V6.90423C55 3.0888 58.0849 0.00390625 61.9003 0.00390625Z" fill="#0D0F1C"/>
<path d="M70.6517 22.7343H64.6119L63.3779 26.5659C63.3455 26.712 63.2155 26.8094 63.0695 26.7932H60.0172C59.8386 26.7932 59.7899 26.6958 59.8386 26.5009L65.0666 11.5151C65.1152 11.3527 65.164 11.2067 65.229 11.0118C65.294 10.6709 65.3264 10.3137 65.3264 9.95645C65.3102 9.87525 65.3751 9.79404 65.4563 9.77783H69.6614C69.775 9.77783 69.8562 9.82646 69.8724 9.90767L75.7986 26.4684C75.8473 26.647 75.7986 26.7282 75.6361 26.7282H72.2428C72.1292 26.7444 72.0155 26.6632 71.983 26.5496L70.6516 22.6529V22.7341L70.6517 22.7343ZM65.5537 19.5034H69.6776C69.5801 19.1625 69.4503 18.7565 69.3041 18.3344C69.1579 17.8961 69.0119 17.4252 68.8658 16.9381C68.7034 16.4348 68.5574 15.9478 68.3949 15.4445C68.2325 14.9412 68.0865 14.4703 67.9567 13.9994C67.8268 13.5448 67.7132 13.1227 67.5994 12.733H67.567C67.4208 13.4312 67.2423 14.1293 67.0149 14.8276C66.7715 15.6069 66.5278 16.4186 66.268 17.2305C66.057 18.0585 65.7971 18.8216 65.5537 19.5035V19.5034ZM85.3615 21.2731H80.2147C80.2797 21.7764 80.4419 22.2796 80.718 22.7181C81.0102 23.1564 81.4161 23.4974 81.9032 23.6923C82.5527 23.9683 83.267 24.1143 83.9813 24.0981C84.5496 24.0819 85.1179 24.0331 85.6698 23.9195C86.1731 23.8545 86.6602 23.7247 87.1149 23.5461C87.1961 23.4811 87.2447 23.5136 87.2447 23.6759V26.1601C87.2447 26.2251 87.2285 26.2899 87.2123 26.3549C87.1799 26.4037 87.1473 26.4361 87.0986 26.4685C86.5791 26.6958 86.0433 26.8582 85.475 26.9556C84.7119 27.1017 83.9488 27.1667 83.1694 27.1504C81.9354 27.1504 80.8964 26.9556 80.0521 26.5822C79.2566 26.2411 78.5585 25.7054 78.0064 25.0397C77.4869 24.4066 77.1134 23.6921 76.8862 22.9128C76.6589 22.1497 76.5452 21.3541 76.5452 20.5424C76.5452 19.6656 76.675 18.8051 76.951 17.9608C77.2109 17.149 77.6167 16.4021 78.1686 15.7364C78.7045 15.0869 79.3701 14.5674 80.1332 14.194C80.8963 13.8205 81.8055 13.6907 82.8446 13.6907C83.7051 13.6745 84.5657 13.8369 85.3612 14.194C86.0269 14.4862 86.6114 14.9247 87.0661 15.4928C87.4882 16.0449 87.8292 16.6618 88.0402 17.3437C88.2513 17.9932 88.3487 18.6587 88.3487 19.3244C88.3487 19.7141 88.3325 20.0551 88.3163 20.3636C88.2838 20.672 88.2675 20.8995 88.2513 21.0455C88.2351 21.1591 88.1376 21.2565 88.024 21.2565C87.9266 21.2565 87.748 21.2728 87.4882 21.289C87.2283 21.3214 86.9199 21.3377 86.5464 21.3377C86.173 21.3377 85.7833 21.2728 85.3612 21.2728L85.3615 21.2731ZM80.2147 18.9027H83.6405C84.0625 18.9027 84.3712 18.9027 84.5658 18.8865C84.6957 18.8702 84.8257 18.8377 84.9393 18.7566V18.5942C84.9393 18.3832 84.9069 18.1883 84.8419 17.9935C84.5496 17.0843 83.6891 16.4673 82.7311 16.4998C81.8382 16.4511 80.9939 16.9219 80.5718 17.7338C80.3769 18.1073 80.2633 18.4969 80.2145 18.9028L80.2147 18.9027Z" fill="#61C0FF"/>
</g>
<g clip-path="url(#clip1_189_417)">
<path d="M116.729 0.475098H141.271C144.992 0.475098 148 3.48333 148 7.20436V30.7958C148 34.5169 144.992 37.5251 141.271 37.5251H116.729C113.008 37.5251 110 34.5169 110 30.7958V7.20436C110 3.48333 113.008 0.475098 116.729 0.475098Z" fill="#0D0F1C"/>
<path d="M123.617 9.89575C123.142 9.89575 122.667 9.89575 122.176 9.91178C121.685 9.92752 121.226 9.92752 120.798 9.94355C120.371 9.95928 119.975 9.95928 119.595 9.97502C119.231 9.99075 118.977 9.99075 118.708 9.99075C118.597 9.99075 118.55 10.054 118.55 10.165V26.4575C118.55 26.6 118.613 26.6635 118.74 26.6635H121.812C121.922 26.6475 122.002 26.5525 121.986 26.4418V21.3593C122.286 21.3593 122.508 21.3593 122.667 21.375C122.825 21.3908 123.078 21.3908 123.458 21.3908C124.757 21.3908 125.944 21.2483 127.021 20.8525C128.05 20.4725 128.937 19.8075 129.57 18.9208C130.203 18.0343 130.52 16.91 130.52 15.5483C130.52 14.8358 130.393 14.155 130.156 13.49C129.904 12.8124 129.51 12.1969 129 11.685C128.398 11.1001 127.673 10.6565 126.878 10.3865C125.991 10.054 124.915 9.89575 123.617 9.89575ZM123.97 13.0144C124.534 13.0251 125.083 13.1237 125.596 13.3315C126.055 13.5058 126.435 13.8225 126.704 14.234C126.957 14.6597 127.083 15.1486 127.068 15.6435C127.068 16.34 126.91 16.8785 126.577 17.2743C126.229 17.67 125.786 17.971 125.279 18.1135C124.693 18.3035 124.076 18.3983 123.458 18.3983H122.619C122.429 18.3983 122.223 18.3825 122.002 18.3668V13.0468C122.112 13.0308 122.334 13.015 122.651 13.031C122.952 13.015 123.316 13.015 123.727 13.015C123.808 13.0129 123.889 13.0126 123.97 13.0144ZM137.249 13.8228C136.125 13.8228 135.191 13.9968 134.447 14.3768C133.766 14.6935 133.18 15.2 132.784 15.8333C132.436 16.4193 132.246 17.0683 132.246 17.7493C132.232 18.3094 132.357 18.8642 132.61 19.3643C132.906 19.8967 133.317 20.3564 133.813 20.71C134.51 21.1863 135.266 21.5696 136.062 21.85C136.837 22.1508 137.36 22.3883 137.613 22.594C137.867 22.8 137.993 23.0058 137.993 23.2275C137.993 23.5125 137.819 23.7818 137.566 23.8925C137.281 24.035 136.853 24.1143 136.252 24.1143C135.618 24.1143 134.985 24.035 134.383 23.8768C133.692 23.7223 133.03 23.4606 132.42 23.101C132.372 23.0693 132.325 23.0535 132.277 23.0853C132.23 23.1168 132.214 23.18 132.214 23.2275V25.9825C132.198 26.1093 132.277 26.22 132.388 26.2833C132.902 26.5232 133.445 26.6936 134.003 26.79C134.716 26.9325 135.428 26.9958 136.156 26.9958C137.296 26.9958 138.247 26.8218 139.022 26.4893C139.735 26.2043 140.352 25.7135 140.796 25.08C141.21 24.4571 141.426 23.7226 141.413 22.9743C141.429 22.409 141.303 21.8486 141.049 21.3435C140.748 20.805 140.321 20.3618 139.798 20.0293C139.034 19.5493 138.215 19.1613 137.36 18.8733C136.978 18.7152 136.603 18.5409 136.236 18.3508C136.03 18.24 135.84 18.0975 135.697 17.9233C135.602 17.7965 135.539 17.6543 135.539 17.5118C135.539 17.3693 135.587 17.211 135.666 17.0843C135.777 16.926 135.951 16.815 136.156 16.7675C136.457 16.6885 136.79 16.6408 137.106 16.6565C137.708 16.6565 138.294 16.7358 138.88 16.8625C139.418 16.9733 139.925 17.1475 140.4 17.401C140.463 17.4325 140.542 17.4325 140.685 17.401C140.71 17.3828 140.73 17.3589 140.744 17.3313C140.757 17.3038 140.764 17.2733 140.764 17.2425V14.6618C140.764 14.5983 140.748 14.535 140.732 14.4718C140.701 14.4085 140.637 14.345 140.574 14.3293C140.137 14.1507 139.68 14.0283 139.212 13.965C138.562 13.8703 137.906 13.823 137.249 13.8228Z" fill="#61C0FF"/>
</g>
<mask id="mask0_189_417" style="mask-type:luminance" maskUnits="userSpaceOnUse" x="164" y="0" width="39" height="38">
<path d="M202.974 0H164V38H202.974V0Z" fill="white"/>
</mask>
<g mask="url(#mask0_189_417)">
<path d="M196.073 0H170.902C167.09 0 164 3.09 164 6.9017V31.0983C164 34.91 167.09 38 170.902 38H196.073C199.884 38 202.974 34.91 202.974 31.0983V6.9017C202.974 3.09 199.884 0 196.073 0Z" fill="#0D0F1C"/>
<path d="M182.886 22.8045H176.847L175.618 26.6217C175.601 26.6913 175.561 26.7529 175.503 26.7959C175.446 26.8388 175.376 26.8605 175.304 26.857H172.245C172.071 26.857 172.01 26.7612 172.062 26.5694L177.291 11.5097C177.343 11.3529 177.396 11.1742 177.448 10.9737C177.516 10.6249 177.551 10.2704 177.553 9.91488C177.549 9.89003 177.551 9.86467 177.559 9.84087C177.567 9.81703 177.581 9.79541 177.598 9.77765C177.616 9.75988 177.638 9.74649 177.662 9.73856C177.685 9.73058 177.711 9.7283 177.736 9.73186H181.893C182.015 9.73186 182.084 9.77542 182.102 9.86258L188.037 26.5955C188.089 26.77 188.037 26.8572 187.88 26.857H184.481C184.423 26.8635 184.364 26.8485 184.316 26.8148C184.268 26.7811 184.234 26.7311 184.22 26.674L182.886 22.8045ZM177.788 19.5102H181.919C181.814 19.1617 181.692 18.7695 181.553 18.3336C181.413 17.8982 181.265 17.4319 181.108 16.9349C180.952 16.4381 180.795 15.9414 180.638 15.4446C180.481 14.9478 180.337 14.4685 180.206 14.0066C180.076 13.545 179.958 13.1223 179.853 12.7386H179.827C179.68 13.4447 179.497 14.1428 179.278 14.8302C179.034 15.6145 178.786 16.4163 178.533 17.2355C178.28 18.055 178.032 18.8133 177.788 19.5102Z" fill="#61C0FF"/>
<path d="M191.566 12.5034C191.3 12.5141 191.034 12.4684 190.786 12.3693C190.538 12.2702 190.314 12.1199 190.128 11.9282C189.943 11.7282 189.799 11.4936 189.705 11.2379C189.611 10.9821 189.568 10.7103 189.579 10.4379C189.57 10.1683 189.617 9.89967 189.719 9.64963C189.82 9.39959 189.973 9.17372 190.168 8.98686C190.36 8.80189 190.588 8.65697 190.837 8.5605C191.086 8.46398 191.352 8.41786 191.619 8.42474C192.246 8.42474 192.739 8.61208 193.096 8.98686C193.276 9.18161 193.416 9.40999 193.508 9.65898C193.6 9.90798 193.642 10.1727 193.632 10.4379C193.643 10.7113 193.599 10.9841 193.502 11.2401C193.406 11.4961 193.259 11.7301 193.07 11.9282C192.873 12.1227 192.637 12.2742 192.378 12.3732C192.12 12.4722 191.843 12.5165 191.566 12.5034ZM189.762 26.5957V14.0982C189.762 13.9414 189.832 13.8629 189.972 13.8629H193.187C193.327 13.8629 193.396 13.9413 193.397 14.0982V26.5957C193.397 26.7701 193.327 26.8573 193.187 26.8572H189.998C189.841 26.8572 189.762 26.77 189.762 26.5957Z" fill="#61C0FF"/>
</g>
<g clip-path="url(#clip2_189_417)">
<path d="M32.452 54H6.46C2.89224 54 0 56.8922 0 60.46V85.4792C0 89.047 2.89224 91.9392 6.46 91.9392H32.452C36.0198 91.9392 38.912 89.047 38.912 85.4792V60.46C38.912 56.8922 36.0198 54 32.452 54Z" fill="#0D0F1C"/>
<path d="M14.1311 63.9252V80.5531C14.1311 80.7273 14.0528 80.8142 13.8962 80.8142H10.7376C10.5982 80.8142 10.5286 80.7271 10.5288 80.5531V63.9252C10.5288 63.7861 10.6071 63.7165 10.7637 63.7164H13.9222C13.9797 63.7082 14.0377 63.7276 14.0788 63.7686C14.1147 63.8046 14.134 63.8535 14.1328 63.9037L14.1311 63.9252ZM23.6442 81.0735L23.4761 81.0752C22.2746 81.0935 21.0842 80.8438 19.9913 80.3443C18.9732 79.8731 18.1221 79.1039 17.5507 78.1386C16.9732 77.1796 16.6775 75.9843 16.6636 74.5527L16.6631 74.4449C16.6533 73.2469 16.9594 72.0674 17.5507 71.0254C18.1436 69.9919 19.0083 69.1413 20.0501 68.5655L20.1349 68.5194C21.2659 67.8929 22.632 67.5797 24.2331 67.5797L24.2669 67.5799L24.3419 67.5815L24.4267 67.5848L24.5214 67.5897L24.6258 67.5963L24.74 67.6046L24.9978 67.6257C25.0209 67.6277 25.0445 67.6298 25.0684 67.6319V62.4895C25.0684 62.368 25.1207 62.3068 25.2251 62.3068H28.5141C28.5572 62.3006 28.6007 62.3151 28.6315 62.346C28.6624 62.3768 28.6769 62.4203 28.6707 62.4634V77.8906C28.6707 78.1867 28.6838 78.5086 28.7098 78.8564L28.7345 79.193L28.7563 79.5062L28.7752 79.7961C28.7817 79.9071 28.7195 80.0107 28.6185 80.0572C27.77 80.411 26.8862 80.6736 25.9821 80.8402C25.2105 80.9827 24.4285 81.0606 23.6442 81.0735ZM25.0684 77.8384V70.7121C24.9273 70.6739 24.7833 70.6477 24.6377 70.6338C24.4599 70.6159 24.2813 70.6072 24.1026 70.6077C23.4691 70.6014 22.8431 70.7445 22.2753 71.0254C21.7223 71.3003 21.2501 71.714 20.905 72.2261C20.5481 72.7482 20.3697 73.4356 20.3698 74.2883C20.3571 74.8573 20.45 75.4238 20.6439 75.9589C20.8016 76.3901 21.051 76.782 21.3748 77.1075C21.6848 77.407 22.0601 77.6304 22.4711 77.7601C22.9053 77.9007 23.3591 77.9711 23.8154 77.969C24.059 77.969 24.2852 77.9602 24.4941 77.9428C24.6609 77.9302 24.8261 77.9027 24.9878 77.8606L25.0684 77.8384Z" fill="#61C0FF"/>
</g>
<g clip-path="url(#clip3_189_417)">
<path d="M55 54H93V92H55V54Z" fill="#61C0FF"/>
<path d="M80.894 59.0667H76.8375L80.4388 64.6479L72.8254 59.0667H68.7689L72.3702 66.3801L64.7567 59.0667H60.7002L64.2421 68.5081L60.7002 86.9333H64.7567L72.3702 67.1773L68.7689 86.9333H72.8254L80.4388 65.4459L76.8375 86.9333H80.894L88.5669 63.3298L80.894 59.0667Z" fill="#0D0F1C"/>
</g>
<path d="M111.532 68.2928L123.751 75.3038L123.741 77.3937L116.79 73.4069L112.416 75.8927L123.733 82.4161L123.741 84.4269L111.616 77.4523C111.648 78.2693 112.389 80.7868 113.806 82.7359C115.247 84.7103 116.887 85.5479 116.887 85.5479L128.094 92V72.7609L111.543 63.2562L111.532 68.2928ZM146.467 62.2761L134.098 55.1447C134.098 55.1447 132.138 54 129.012 54C125.757 54 123.87 55.1812 123.87 55.1812L112.413 61.7362L129.843 71.7555V92L141.315 85.4513C141.315 85.4513 143.365 84.3193 144.923 81.6292C146.296 79.2605 146.467 76.9694 146.467 76.9694V62.2761ZM127.814 65.571C127.814 65.571 130.371 65.0992 132.532 66.3468L135.969 68.326C135.969 68.326 135.974 70.0629 135.974 72.658C135.974 74.7369 134.213 76.8918 134.213 76.8918L134.217 69.2665L127.814 65.571ZM137.95 82.2942L134.217 84.4364V82.4272L137.122 80.7647C139.89 78.7697 140.347 75.8294 140.347 74.8097L140.336 65.7768L132.41 61.2153C132.41 61.2153 131.207 60.4252 129.039 60.4252C126.875 60.4252 125.694 61.1551 125.694 61.1551L122.91 62.7558L121.153 61.7409L124.998 59.5417C124.998 59.5417 126.503 58.7073 129.026 58.7073C131.341 58.7073 133.143 59.6113 133.143 59.6113L142.094 64.7825L142.083 74.6403C142.146 76.1556 141.44 79.8574 137.95 82.2942Z" fill="#0D0F1C"/>
<defs>
<clipPath id="clip0_189_417">
<rect width="38.9664" height="38" fill="white" transform="translate(55)"/>
</clipPath>
<clipPath id="clip1_189_417">
<rect width="38" height="38" fill="white" transform="translate(110)"/>
</clipPath>
<clipPath id="clip2_189_417">
<rect width="38.912" height="38" fill="white" transform="translate(0 54)"/>
</clipPath>
<clipPath id="clip3_189_417">
<rect width="38" height="38" fill="white" transform="translate(55 54)"/>
</clipPath>
</defs>
</svg>
